# xmcd CD database file
#
# Track frame offsets:
#	150
#	16476
#	36335
#	49784
#	67658
#	86005
#	90368
#	109680
#	121295
#	132933
#	154191
#
# Disc length: 2272 seconds
#
# Revision: 0
# Processed by: cddbd v1.5.2PL0 Copyright (c) Steve Scherf et al.
# Submitted via: CDex 1.70beta2
#
DISCID=8408de0b
DTITLE=Brian Brown  - Beatles
DYEAR=1900
DGENRE=Jazz
TTITLE0=She Came In Through The Bathroom Window
TTITLE1=Mean Mr. Bustart
TTITLE2=Lovely Rita
TTITLE3=I Want To Hold Your Hand
TTITLE4=Honey Pie
TTITLE5=Golden Slumbers
TTITLE6=You Never Give Me Your Money
TTITLE7=Lady Madonna
TTITLE8=Maxwell's Silver Hammer
TTITLE9=While Giutar Gently Weeps
TTITLE10=She's Leaving Home
EXTD=
EXTT0=
EXTT1=
EXTT2=
EXTT3=
EXTT4=
EXTT5=
EXTT6=
EXTT7=
EXTT8=
EXTT9=
EXTT10=
PLAYORDER=
